<svg width="191" height="39" viewBox="0 0 191 39" fill="none" xmlns="http://www.w3.org/2000/svg">
<path d="M38.3696 24L42.0656 12.8H42.9296L46.6576 24H45.5216L42.8176 15.632C42.8016 15.5787 42.7696 15.4853 42.7216 15.352C42.679 15.2133 42.6336 15.0747 42.5856 14.936C42.543 14.7973 42.5136 14.6933 42.4976 14.624C42.4816 14.6933 42.4523 14.7973 42.4096 14.936C42.367 15.0747 42.3243 15.2107 42.2816 15.344C42.2443 15.4773 42.215 15.5733 42.1936 15.632L39.5376 24H38.3696ZM40.0656 21.104L40.4016 20.112H44.6096L44.9456 21.104H40.0656ZM50.213 24.192C49.493 24.192 48.8717 24.016 48.349 23.664C47.8263 23.312 47.4237 22.816 47.141 22.176C46.8637 21.5307 46.725 20.7733 46.725 19.904C46.725 19.008 46.8663 18.2427 47.149 17.608C47.4317 16.968 47.8343 16.48 48.357 16.144C48.8797 15.8027 49.4983 15.632 50.213 15.632C50.773 15.632 51.2317 15.7093 51.589 15.864C51.9517 16.0187 52.2557 16.1973 52.501 16.4V13.008L53.621 12.448V24H52.501V23.296C52.2557 23.5413 51.9543 23.752 51.597 23.928C51.245 24.104 50.7837 24.192 50.213 24.192ZM50.341 23.184C50.805 23.184 51.2237 23.072 51.597 22.848C51.9757 22.624 52.277 22.3093 52.501 21.904V17.824C52.3357 17.552 52.077 17.288 51.725 17.032C51.3783 16.7707 50.917 16.64 50.341 16.64C49.5517 16.64 48.9463 16.9227 48.525 17.488C48.1037 18.048 47.893 18.8533 47.893 19.904C47.893 20.512 47.9917 21.064 48.189 21.56C48.3917 22.056 48.6743 22.4507 49.037 22.744C49.405 23.0373 49.8397 23.184 50.341 23.184ZM57.8804 24.192C57.3097 24.192 56.8084 24.0907 56.3764 23.888C55.9444 23.68 55.6057 23.3707 55.3604 22.96C55.1204 22.5493 55.0004 22.0373 55.0004 21.424C55.0004 20.7947 55.1444 20.2827 55.4324 19.888C55.7257 19.488 56.1044 19.1947 56.5684 19.008C57.0377 18.816 57.539 18.72 58.0724 18.72C58.467 18.72 58.8484 18.7627 59.2164 18.848C59.5897 18.928 59.9764 19.0773 60.3764 19.296V18.608C60.3764 18.0587 60.291 17.64 60.1204 17.352C59.9497 17.064 59.7257 16.8693 59.4484 16.768C59.1764 16.6613 58.8884 16.608 58.5844 16.608C58.1524 16.608 57.6937 16.704 57.2084 16.896C56.7284 17.0827 56.323 17.28 55.9924 17.488L55.6724 16.528C56.019 16.32 56.4617 16.12 57.0004 15.928C57.539 15.7307 58.1044 15.632 58.6964 15.632C58.9897 15.632 59.2937 15.672 59.6084 15.752C59.923 15.832 60.2164 15.976 60.4884 16.184C60.7657 16.3867 60.9897 16.672 61.1604 17.04C61.331 17.408 61.4164 17.8827 61.4164 18.464V24H60.3764V23.2C60.051 23.4933 59.675 23.7333 59.2484 23.92C58.827 24.1013 58.371 24.192 57.8804 24.192ZM57.9924 23.216C58.5364 23.216 59.0084 23.0827 59.4084 22.816C59.8084 22.544 60.131 22.256 60.3764 21.952V20.368C60.115 20.192 59.7844 20.0373 59.3844 19.904C58.9844 19.7653 58.5844 19.696 58.1844 19.696C57.6084 19.696 57.107 19.8373 56.6804 20.12C56.2537 20.3973 56.0404 20.832 56.0404 21.424C56.0404 21.9573 56.2084 22.3893 56.5444 22.72C56.8857 23.0507 57.3684 23.216 57.9924 23.216ZM62.2517 24V15.824H63.4037V17.168L63.2437 17.056C63.4144 16.5973 63.6304 16.2453 63.8917 16C64.1531 15.7547 64.4917 15.632 64.9077 15.632C65.3877 15.632 65.7611 15.768 66.0277 16.04C66.2944 16.3067 66.4757 16.5973 66.5717 16.912C66.7584 16.56 67.0037 16.2587 67.3077 16.008C67.6117 15.7573 67.9797 15.632 68.4117 15.632C69.0997 15.632 69.6037 15.8507 69.9237 16.288C70.2491 16.7253 70.4117 17.408 70.4117 18.336V24H69.2597V18.992C69.2597 18.2133 69.1957 17.632 69.0677 17.248C68.9397 16.864 68.6517 16.672 68.2037 16.672C67.8837 16.672 67.6277 16.784 67.4357 17.008C67.2491 17.232 67.1131 17.528 67.0277 17.896C66.9477 18.264 66.9077 18.6667 66.9077 19.104V24H65.7557V18.784C65.7557 18.4267 65.7344 18.088 65.6917 17.768C65.6544 17.4427 65.5637 17.1787 65.4197 16.976C65.2811 16.7733 65.0624 16.672 64.7637 16.672C64.4544 16.672 64.1984 16.784 63.9957 17.008C63.7984 17.232 63.6491 17.528 63.5477 17.896C63.4517 18.264 63.4037 18.6667 63.4037 19.104V24H62.2517ZM82.4985 24.192C81.8105 24.192 81.2212 24.032 80.7305 23.712C80.2452 23.3867 79.8505 22.9493 79.5465 22.4C79.2425 21.8453 79.0185 21.224 78.8745 20.536C78.7305 19.8427 78.6585 19.1307 78.6585 18.4C78.6585 17.6373 78.7332 16.9093 78.8825 16.216C79.0318 15.5173 79.2612 14.8987 79.5705 14.36C79.8852 13.816 80.2852 13.3893 80.7705 13.08C81.2558 12.7653 81.8318 12.608 82.4985 12.608C83.0745 12.608 83.5492 12.696 83.9225 12.872C84.3012 13.0427 84.6078 13.2667 84.8425 13.544C85.0825 13.8213 85.2825 14.112 85.4425 14.416L84.4505 14.992C84.2532 14.6293 84.0078 14.3093 83.7145 14.032C83.4265 13.7547 83.0212 13.616 82.4985 13.616C82.0078 13.616 81.5918 13.76 81.2505 14.048C80.9092 14.3307 80.6345 14.7067 80.4265 15.176C80.2185 15.6453 80.0665 16.1627 79.9705 16.728C79.8745 17.288 79.8265 17.8453 79.8265 18.4C79.8265 19.0133 79.8772 19.608 79.9785 20.184C80.0798 20.7547 80.2372 21.2667 80.4505 21.72C80.6692 22.168 80.9465 22.5253 81.2825 22.792C81.6238 23.0533 82.0292 23.184 82.4985 23.184C83.1705 23.184 83.7012 22.9333 84.0905 22.432C84.4798 21.9253 84.6745 21.248 84.6745 20.4V19.728H82.6105V18.736H85.8585V19.968C85.8585 20.8853 85.7092 21.6587 85.4105 22.288C85.1118 22.912 84.7092 23.3867 84.2025 23.712C83.6958 24.032 83.1278 24.192 82.4985 24.192ZM89.6379 24.192C89.0672 24.192 88.5659 24.0907 88.1339 23.888C87.7019 23.68 87.3632 23.3707 87.1179 22.96C86.8779 22.5493 86.7579 22.0373 86.7579 21.424C86.7579 20.7947 86.9019 20.2827 87.1899 19.888C87.4832 19.488 87.8619 19.1947 88.3259 19.008C88.7952 18.816 89.2965 18.72 89.8299 18.72C90.2245 18.72 90.6059 18.7627 90.9739 18.848C91.3472 18.928 91.7339 19.0773 92.1339 19.296V18.608C92.1339 18.0587 92.0485 17.64 91.8779 17.352C91.7072 17.064 91.4832 16.8693 91.2059 16.768C90.9339 16.6613 90.6459 16.608 90.3419 16.608C89.9099 16.608 89.4512 16.704 88.9659 16.896C88.4859 17.0827 88.0805 17.28 87.7499 17.488L87.4299 16.528C87.7765 16.32 88.2192 16.12 88.7579 15.928C89.2965 15.7307 89.8619 15.632 90.4539 15.632C90.7472 15.632 91.0512 15.672 91.3659 15.752C91.6805 15.832 91.9739 15.976 92.2459 16.184C92.5232 16.3867 92.7472 16.672 92.9179 17.04C93.0885 17.408 93.1739 17.8827 93.1739 18.464V24H92.1339V23.2C91.8085 23.4933 91.4325 23.7333 91.0059 23.92C90.5845 24.1013 90.1285 24.192 89.6379 24.192ZM89.7499 23.216C90.2939 23.216 90.7659 23.0827 91.1659 22.816C91.5659 22.544 91.8885 22.256 92.1339 21.952V20.368C91.8725 20.192 91.5419 20.0373 91.1419 19.904C90.7419 19.7653 90.3419 19.696 89.9419 19.696C89.3659 19.696 88.8645 19.8373 88.4379 20.12C88.0112 20.3973 87.7979 20.832 87.7979 21.424C87.7979 21.9573 87.9659 22.3893 88.3019 22.72C88.6432 23.0507 89.1259 23.216 89.7499 23.216ZM94.9213 27.248V15.824H96.0413V16.56C96.3079 16.32 96.6119 16.1067 96.9533 15.92C97.2946 15.728 97.7533 15.632 98.3293 15.632C99.0706 15.632 99.7053 15.8107 100.233 16.168C100.767 16.52 101.175 17.016 101.457 17.656C101.74 18.296 101.881 19.0453 101.881 19.904C101.881 20.816 101.732 21.592 101.433 22.232C101.135 22.8667 100.721 23.352 100.193 23.688C99.6706 24.024 99.0706 24.192 98.3933 24.192C97.7639 24.192 97.2733 24.0907 96.9213 23.888C96.5693 23.68 96.2759 23.44 96.0413 23.168V26.688L94.9213 27.248ZM98.2653 23.184C99.0439 23.184 99.6466 22.9013 100.073 22.336C100.5 21.7707 100.713 20.96 100.713 19.904C100.713 18.912 100.492 18.12 100.049 17.528C99.6119 16.936 98.9959 16.64 98.2013 16.64C97.7373 16.64 97.3159 16.752 96.9373 16.976C96.5639 17.1947 96.2653 17.504 96.0413 17.904V21.92C96.3239 22.2773 96.6413 22.5787 96.9933 22.824C97.3453 23.064 97.7693 23.184 98.2653 23.184ZM102.861 27.248V15.824H103.981V16.56C104.247 16.32 104.551 16.1067 104.893 15.92C105.234 15.728 105.693 15.632 106.269 15.632C107.01 15.632 107.645 15.8107 108.173 16.168C108.706 16.52 109.114 17.016 109.397 17.656C109.679 18.296 109.821 19.0453 109.821 19.904C109.821 20.816 109.671 21.592 109.373 22.232C109.074 22.8667 108.661 23.352 108.133 23.688C107.61 24.024 107.01 24.192 106.333 24.192C105.703 24.192 105.213 24.0907 104.861 23.888C104.509 23.68 104.215 23.44 103.981 23.168V26.688L102.861 27.248ZM106.205 23.184C106.983 23.184 107.586 22.9013 108.013 22.336C108.439 21.7707 108.653 20.96 108.653 19.904C108.653 18.912 108.431 18.12 107.989 17.528C107.551 16.936 106.935 16.64 106.141 16.64C105.677 16.64 105.255 16.752 104.877 16.976C104.503 17.1947 104.205 17.504 103.981 17.904V21.92C104.263 22.2773 104.581 22.5787 104.933 22.824C105.285 23.064 105.709 23.184 106.205 23.184ZM114.128 24.192C113.355 24.192 112.693 23.9947 112.144 23.6C111.6 23.2053 111.184 22.6827 110.896 22.032C110.608 21.3813 110.464 20.672 110.464 19.904C110.464 18.9973 110.616 18.2267 110.92 17.592C111.224 16.952 111.651 16.4667 112.2 16.136C112.749 15.8 113.392 15.632 114.128 15.632C114.731 15.632 115.285 15.7707 115.792 16.048C116.299 16.3253 116.704 16.7547 117.008 17.336C117.317 17.9173 117.472 18.6667 117.472 19.584C117.472 19.6693 117.469 19.7787 117.464 19.912C117.464 20.04 117.456 20.192 117.44 20.368H111.36V19.36H116.336C116.336 18.6293 116.216 18.0693 115.976 17.68C115.736 17.2853 115.443 17.0133 115.096 16.864C114.755 16.7147 114.432 16.64 114.128 16.64C113.275 16.64 112.643 16.912 112.232 17.456C111.821 18 111.616 18.7253 111.616 19.632C111.616 20.7253 111.843 21.5867 112.296 22.216C112.749 22.84 113.376 23.152 114.176 23.152C114.491 23.152 114.813 23.104 115.144 23.008C115.475 22.9067 115.803 22.7413 116.128 22.512L116.736 23.264C116.4 23.5253 116.005 23.7467 115.552 23.928C115.099 24.104 114.624 24.192 114.128 24.192ZM117.795 24V22.992H119.491V16.832H117.795V15.824H120.595V17.664L120.499 17.44C120.691 17.0613 120.974 16.7387 121.347 16.472C121.721 16.2 122.129 15.992 122.571 15.848C123.019 15.704 123.449 15.632 123.859 15.632C124.275 15.632 124.627 15.6667 124.915 15.736C125.203 15.8053 125.427 15.8933 125.587 16V18.736H124.451V16.336L124.723 16.896C124.595 16.8533 124.454 16.824 124.299 16.808C124.145 16.792 123.971 16.784 123.779 16.784C123.283 16.784 122.795 16.872 122.315 17.048C121.835 17.2187 121.438 17.4747 121.123 17.816C120.814 18.1573 120.659 18.5813 120.659 19.088V22.992H123.107V24H117.795ZM134.538 24V12.8H137.082C137.887 12.8 138.565 12.96 139.114 13.28C139.663 13.6 140.103 14.0293 140.434 14.568C140.77 15.1013 141.013 15.7013 141.162 16.368C141.311 17.0293 141.386 17.7067 141.386 18.4C141.386 19.0453 141.317 19.696 141.178 20.352C141.045 21.008 140.813 21.6133 140.482 22.168C140.157 22.7173 139.711 23.16 139.146 23.496C138.586 23.832 137.877 24 137.018 24H134.538ZM135.658 22.992H137.002C137.631 22.992 138.154 22.8587 138.57 22.592C138.986 22.32 139.314 21.96 139.554 21.512C139.794 21.064 139.965 20.5707 140.066 20.032C140.167 19.488 140.218 18.944 140.218 18.4C140.218 17.8187 140.162 17.256 140.05 16.712C139.943 16.1627 139.767 15.6693 139.522 15.232C139.282 14.7947 138.97 14.448 138.586 14.192C138.202 13.936 137.733 13.808 137.178 13.808H135.658V22.992ZM145.886 24.192C145.112 24.192 144.451 23.9947 143.902 23.6C143.358 23.2053 142.942 22.6827 142.654 22.032C142.366 21.3813 142.222 20.672 142.222 19.904C142.222 18.9973 142.374 18.2267 142.678 17.592C142.982 16.952 143.408 16.4667 143.958 16.136C144.507 15.8 145.15 15.632 145.886 15.632C146.488 15.632 147.043 15.7707 147.55 16.048C148.056 16.3253 148.462 16.7547 148.766 17.336C149.075 17.9173 149.23 18.6667 149.23 19.584C149.23 19.6693 149.227 19.7787 149.222 19.912C149.222 20.04 149.214 20.192 149.198 20.368H143.118V19.36H148.094C148.094 18.6293 147.974 18.0693 147.734 17.68C147.494 17.2853 147.2 17.0133 146.854 16.864C146.512 16.7147 146.19 16.64 145.886 16.64C145.032 16.64 144.4 16.912 143.99 17.456C143.579 18 143.374 18.7253 143.374 19.632C143.374 20.7253 143.6 21.5867 144.054 22.216C144.507 22.84 145.134 23.152 145.934 23.152C146.248 23.152 146.571 23.104 146.902 23.008C147.232 22.9067 147.56 22.7413 147.886 22.512L148.494 23.264C148.158 23.5253 147.763 23.7467 147.31 23.928C146.856 24.104 146.382 24.192 145.886 24.192ZM153.585 24.192C153.02 24.192 152.481 24.056 151.969 23.784C151.457 23.512 151.025 23.1733 150.673 22.768L151.457 22.08C151.713 22.3733 152.038 22.6347 152.433 22.864C152.828 23.088 153.244 23.2 153.681 23.2C154.156 23.2 154.556 23.0987 154.881 22.896C155.212 22.6933 155.377 22.4 155.377 22.016C155.377 21.6853 155.27 21.4107 155.057 21.192C154.849 20.968 154.582 20.7787 154.257 20.624C153.932 20.4693 153.596 20.3253 153.249 20.192C152.801 20.016 152.382 19.8267 151.993 19.624C151.609 19.416 151.297 19.16 151.057 18.856C150.822 18.552 150.705 18.1707 150.705 17.712C150.705 17.296 150.822 16.9333 151.057 16.624C151.292 16.3093 151.614 16.0667 152.025 15.896C152.441 15.72 152.913 15.632 153.441 15.632C154.012 15.632 154.529 15.7413 154.993 15.96C155.457 16.1787 155.857 16.4853 156.193 16.88L155.457 17.504C155.244 17.296 154.966 17.0987 154.625 16.912C154.289 16.72 153.884 16.624 153.409 16.624C152.908 16.624 152.508 16.72 152.209 16.912C151.91 17.104 151.761 17.3653 151.761 17.696C151.761 17.968 151.854 18.1973 152.041 18.384C152.233 18.5653 152.478 18.7253 152.777 18.864C153.076 19.0027 153.393 19.136 153.729 19.264C154.15 19.424 154.569 19.608 154.985 19.816C155.401 20.0187 155.745 20.288 156.017 20.624C156.294 20.96 156.433 21.4027 156.433 21.952C156.433 22.6293 156.177 23.1733 155.665 23.584C155.158 23.9893 154.465 24.192 153.585 24.192ZM161.3 23.68V15.824H162.42V23.68H161.3ZM159.044 24V22.992H164.676V24H159.044ZM159.044 16.832V15.824H161.86V16.832H159.044ZM161.86 14.144C161.652 14.144 161.476 14.0747 161.332 13.936C161.194 13.792 161.124 13.616 161.124 13.408C161.124 13.1893 161.194 13.008 161.332 12.864C161.476 12.7147 161.652 12.64 161.86 12.64C162.079 12.64 162.255 12.7147 162.388 12.864C162.527 13.008 162.596 13.1893 162.596 13.408C162.596 13.616 162.527 13.792 162.388 13.936C162.255 14.0747 162.079 14.144 161.86 14.144ZM168.888 27.408L168.376 26.528C169.261 26.48 169.936 26.352 170.4 26.144C170.864 25.936 171.181 25.672 171.352 25.352C171.522 25.0373 171.608 24.6933 171.608 24.32V23.072C171.378 23.4133 171.082 23.6853 170.72 23.888C170.362 24.0907 169.874 24.192 169.256 24.192C168.648 24.192 168.08 24.032 167.552 23.712C167.029 23.392 166.605 22.9147 166.28 22.28C165.96 21.6453 165.8 20.8533 165.8 19.904C165.8 19.008 165.949 18.2427 166.248 17.608C166.552 16.968 166.968 16.48 167.496 16.144C168.024 15.8027 168.632 15.632 169.32 15.632C169.773 15.632 170.152 15.6907 170.456 15.808C170.765 15.92 171.01 16.0533 171.192 16.208C171.378 16.3573 171.517 16.4853 171.608 16.592V15.824H172.728V23.872C172.728 24.544 172.621 25.104 172.408 25.552C172.2 26 171.914 26.3547 171.552 26.616C171.194 26.8827 170.786 27.0747 170.328 27.192C169.869 27.3147 169.389 27.3867 168.888 27.408ZM169.512 23.184C169.906 23.184 170.298 23.064 170.688 22.824C171.077 22.5787 171.384 22.2453 171.608 21.824V17.888C171.378 17.4773 171.058 17.168 170.648 16.96C170.242 16.7467 169.864 16.64 169.512 16.64C168.664 16.64 168.026 16.9227 167.6 17.488C167.178 18.048 166.968 18.8533 166.968 19.904C166.968 20.9493 167.21 21.7573 167.696 22.328C168.181 22.8987 168.786 23.184 169.512 23.184ZM174.315 24V15.824H175.435V17.216L175.243 17.024C175.414 16.7093 175.616 16.4507 175.851 16.248C176.086 16.04 176.352 15.8853 176.651 15.784C176.95 15.6827 177.28 15.632 177.643 15.632C178.331 15.632 178.899 15.7653 179.347 16.032C179.795 16.2933 180.126 16.7067 180.339 17.272C180.558 17.8373 180.667 18.5707 180.667 19.472V24H179.547V19.008C179.547 18.144 179.355 17.5333 178.971 17.176C178.592 16.8187 178.118 16.64 177.547 16.64C177.131 16.64 176.763 16.712 176.443 16.856C176.128 17 175.88 17.2427 175.699 17.584C175.523 17.92 175.435 18.384 175.435 18.976V24H174.315Z" fill="black"/>
<path fill-rule="evenodd" clip-rule="evenodd" d="M12.9812 39L0 19.5283L13.0188 0L26 19.4717L12.9812 39ZM4.15222 14.5279L0.866603 19.4565L4.63761 25.1133L7.92322 20.1847L4.15222 14.5279ZM8.45325 19.3896L4.68224 13.7328L8.64802 7.78386L12.419 13.4406L8.45325 19.3896ZM8.45325 20.9797L5.16763 25.9084L9.1334 31.8573L12.419 26.9287L8.45325 20.9797ZM9.66342 32.6524L12.949 37.581L16.2347 32.6524L12.949 27.7237L9.66342 32.6524ZM16.7647 31.8573L20.7305 25.9084L17.4448 20.9797L13.4791 26.9287L16.7647 31.8573ZM16.9148 20.1846L12.949 26.1336L8.98327 20.1847L12.949 14.2357L16.9148 20.1846ZM17.9749 20.1846L21.2605 25.1133L25.0315 19.4565L21.7459 14.5279L17.9749 20.1846ZM21.2158 13.7328L17.4448 19.3896L13.4791 13.4406L17.2501 7.78387L21.2158 13.7328ZM9.17804 6.98879L12.949 1.33203L16.72 6.9888L12.949 12.6456L9.17804 6.98879Z" fill="black"/>
</svg>
