<svg width="164" height="108" viewBox="0 0 164 108" fill="none" xmlns="http://www.w3.org/2000/svg">
<line y1="-0.5" x2="76.4491" y2="-0.5" transform="matrix(0.546961 -0.837158 0.546961 0.837158 46 65)" stroke="black"/>
<line y1="-0.5" x2="76.4491" y2="-0.5" transform="matrix(0.546961 -0.837158 0.546961 0.837158 53.5655 65)" stroke="black"/>
<line y1="-0.5" x2="76.4491" y2="-0.5" transform="matrix(0.546961 -0.837158 0.546961 0.837158 68.1853 65)" stroke="black"/>
<line y1="-0.5" x2="76.4491" y2="-0.5" transform="matrix(-0.546961 -0.837158 -0.546961 0.837158 110 65)" stroke="black"/>
<line y1="-0.5" x2="76.4491" y2="-0.5" transform="matrix(-0.546961 -0.837158 -0.546961 0.837158 102.435 65)" stroke="black"/>
<line y1="-0.5" x2="76.4491" y2="-0.5" transform="matrix(-0.546961 -0.837158 -0.546961 0.837158 87.8147 65)" stroke="black"/>
<line y1="-0.5" x2="76.4491" y2="-0.5" transform="matrix(-0.546961 0.837158 -0.546961 -0.837158 102.435 1)" stroke="black"/>
<line y1="-0.5" x2="76.4491" y2="-0.5" transform="matrix(0.546961 0.837158 0.546961 -0.837158 53.5655 1)" stroke="black"/>
<path d="M28.1452 86L33.6892 69.2H34.9852L40.5772 86H38.8732L34.8172 73.448C34.7932 73.368 34.7452 73.228 34.6732 73.028C34.6092 72.82 34.5412 72.612 34.4692 72.404C34.4052 72.196 34.3612 72.04 34.3372 71.936C34.3132 72.04 34.2692 72.196 34.2052 72.404C34.1412 72.612 34.0772 72.816 34.0132 73.016C33.9572 73.216 33.9132 73.36 33.8812 73.448L29.8972 86H28.1452ZM30.6892 81.656L31.1932 80.168H37.5052L38.0092 81.656H30.6892ZM46.2703 86.336C45.8383 86.336 45.4783 86.18 45.1903 85.868C44.9023 85.556 44.7583 85.208 44.7583 84.824C44.7583 84.44 44.9023 84.092 45.1903 83.78C45.4783 83.468 45.8383 83.312 46.2703 83.312C46.7023 83.312 47.0623 83.468 47.3503 83.78C47.6383 84.092 47.7823 84.44 47.7823 84.824C47.7823 85.208 47.6383 85.556 47.3503 85.868C47.0623 86.18 46.7023 86.336 46.2703 86.336ZM70.5204 86.288C69.4884 86.288 68.6044 86.048 67.8684 85.568C67.1404 85.08 66.5484 84.424 66.0924 83.6C65.6364 82.768 65.3004 81.836 65.0844 80.804C64.8684 79.764 64.7604 78.696 64.7604 77.6C64.7604 76.456 64.8724 75.364 65.0964 74.324C65.3204 73.276 65.6644 72.348 66.1284 71.54C66.6004 70.724 67.2004 70.084 67.9284 69.62C68.6564 69.148 69.5204 68.912 70.5204 68.912C71.3844 68.912 72.0964 69.044 72.6564 69.308C73.2244 69.564 73.6844 69.9 74.0364 70.316C74.3964 70.732 74.6964 71.168 74.9364 71.624L73.4484 72.488C73.1524 71.944 72.7844 71.464 72.3444 71.048C71.9124 70.632 71.3044 70.424 70.5204 70.424C69.7844 70.424 69.1604 70.64 68.6484 71.072C68.1364 71.496 67.7244 72.06 67.4124 72.764C67.1004 73.468 66.8724 74.244 66.7284 75.092C66.5844 75.932 66.5124 76.768 66.5124 77.6C66.5124 78.52 66.5884 79.412 66.7404 80.276C66.8924 81.132 67.1284 81.9 67.4484 82.58C67.7764 83.252 68.1924 83.788 68.6964 84.188C69.2084 84.58 69.8164 84.776 70.5204 84.776C71.5284 84.776 72.3244 84.4 72.9084 83.648C73.4924 82.888 73.7844 81.872 73.7844 80.6V79.592H70.6884V78.104H75.5604V79.952C75.5604 81.328 75.3364 82.488 74.8884 83.432C74.4404 84.368 73.8364 85.08 73.0764 85.568C72.3164 86.048 71.4644 86.288 70.5204 86.288ZM81.2295 86.288C80.3735 86.288 79.6215 86.136 78.9735 85.832C78.3255 85.52 77.8175 85.056 77.4495 84.44C77.0895 83.824 76.9095 83.056 76.9095 82.136C76.9095 81.192 77.1255 80.424 77.5575 79.832C77.9975 79.232 78.5655 78.792 79.2615 78.512C79.9655 78.224 80.7175 78.08 81.5175 78.08C82.1095 78.08 82.6815 78.144 83.2335 78.272C83.7935 78.392 84.3735 78.616 84.9735 78.944V77.912C84.9735 77.088 84.8455 76.46 84.5895 76.028C84.3335 75.596 83.9975 75.304 83.5815 75.152C83.1735 74.992 82.7415 74.912 82.2855 74.912C81.6375 74.912 80.9495 75.056 80.2215 75.344C79.5015 75.624 78.8935 75.92 78.3975 76.232L77.9175 74.792C78.4375 74.48 79.1015 74.18 79.9095 73.892C80.7175 73.596 81.5655 73.448 82.4535 73.448C82.8935 73.448 83.3495 73.508 83.8215 73.628C84.2935 73.748 84.7335 73.964 85.1415 74.276C85.5575 74.58 85.8935 75.008 86.1495 75.56C86.4055 76.112 86.5335 76.824 86.5335 77.696V86H84.9735V84.8C84.4855 85.24 83.9215 85.6 83.2815 85.88C82.6495 86.152 81.9655 86.288 81.2295 86.288ZM81.3975 84.824C82.2135 84.824 82.9215 84.624 83.5215 84.224C84.1215 83.816 84.6055 83.384 84.9735 82.928V80.552C84.5815 80.288 84.0855 80.056 83.4855 79.856C82.8855 79.648 82.2855 79.544 81.6855 79.544C80.8215 79.544 80.0695 79.756 79.4295 80.18C78.7895 80.596 78.4695 81.248 78.4695 82.136C78.4695 82.936 78.7215 83.584 79.2255 84.08C79.7375 84.576 80.4615 84.824 81.3975 84.824ZM89.1545 90.872V73.736H90.8345V74.84C91.2345 74.48 91.6905 74.16 92.2025 73.88C92.7145 73.592 93.4025 73.448 94.2665 73.448C95.3785 73.448 96.3305 73.716 97.1225 74.252C97.9225 74.78 98.5345 75.524 98.9585 76.484C99.3825 77.444 99.5945 78.568 99.5945 79.856C99.5945 81.224 99.3705 82.388 98.9225 83.348C98.4745 84.3 97.8545 85.028 97.0625 85.532C96.2785 86.036 95.3785 86.288 94.3625 86.288C93.4185 86.288 92.6825 86.136 92.1545 85.832C91.6265 85.52 91.1865 85.16 90.8345 84.752V90.032L89.1545 90.872ZM94.1705 84.776C95.3385 84.776 96.2425 84.352 96.8825 83.504C97.5225 82.656 97.8425 81.44 97.8425 79.856C97.8425 78.368 97.5105 77.18 96.8465 76.292C96.1905 75.404 95.2665 74.96 94.0745 74.96C93.3785 74.96 92.7465 75.128 92.1785 75.464C91.6185 75.792 91.1705 76.256 90.8345 76.856V82.88C91.2585 83.416 91.7345 83.868 92.2625 84.236C92.7905 84.596 93.4265 84.776 94.1705 84.776ZM101.064 90.872V73.736H102.744V74.84C103.144 74.48 103.6 74.16 104.112 73.88C104.624 73.592 105.312 73.448 106.176 73.448C107.288 73.448 108.24 73.716 109.032 74.252C109.832 74.78 110.444 75.524 110.868 76.484C111.292 77.444 111.504 78.568 111.504 79.856C111.504 81.224 111.28 82.388 110.832 83.348C110.384 84.3 109.764 85.028 108.972 85.532C108.188 86.036 107.288 86.288 106.272 86.288C105.328 86.288 104.592 86.136 104.064 85.832C103.536 85.52 103.096 85.16 102.744 84.752V90.032L101.064 90.872ZM106.08 84.776C107.248 84.776 108.152 84.352 108.792 83.504C109.432 82.656 109.752 81.44 109.752 79.856C109.752 78.368 109.42 77.18 108.756 76.292C108.1 75.404 107.176 74.96 105.984 74.96C105.288 74.96 104.656 75.128 104.088 75.464C103.528 75.792 103.08 76.256 102.744 76.856V82.88C103.168 83.416 103.644 83.868 104.172 84.236C104.7 84.596 105.336 84.776 106.08 84.776ZM117.965 86.288C116.805 86.288 115.813 85.992 114.989 85.4C114.173 84.808 113.549 84.024 113.117 83.048C112.685 82.072 112.469 81.008 112.469 79.856C112.469 78.496 112.697 77.34 113.153 76.388C113.609 75.428 114.249 74.7 115.073 74.204C115.897 73.7 116.861 73.448 117.965 73.448C118.869 73.448 119.701 73.656 120.461 74.072C121.221 74.488 121.829 75.132 122.285 76.004C122.749 76.876 122.981 78 122.981 79.376C122.981 79.504 122.977 79.668 122.969 79.868C122.969 80.06 122.957 80.288 122.933 80.552H113.813V79.04H121.277C121.277 77.944 121.097 77.104 120.737 76.52C120.377 75.928 119.937 75.52 119.417 75.296C118.905 75.072 118.421 74.96 117.965 74.96C116.685 74.96 115.737 75.368 115.121 76.184C114.505 77 114.197 78.088 114.197 79.448C114.197 81.088 114.537 82.38 115.217 83.324C115.897 84.26 116.837 84.728 118.037 84.728C118.509 84.728 118.993 84.656 119.489 84.512C119.985 84.36 120.477 84.112 120.965 83.768L121.877 84.896C121.373 85.288 120.781 85.62 120.101 85.892C119.421 86.156 118.709 86.288 117.965 86.288ZM123.466 86V84.488H126.01V75.248H123.466V73.736H127.666V76.496L127.522 76.16C127.81 75.592 128.234 75.108 128.794 74.708C129.354 74.3 129.966 73.988 130.63 73.772C131.302 73.556 131.946 73.448 132.562 73.448C133.186 73.448 133.714 73.5 134.146 73.604C134.578 73.708 134.914 73.84 135.154 74V78.104H133.45V74.504L133.858 75.344C133.666 75.28 133.454 75.236 133.222 75.212C132.99 75.188 132.73 75.176 132.442 75.176C131.698 75.176 130.966 75.308 130.246 75.572C129.526 75.828 128.93 76.212 128.458 76.724C127.994 77.236 127.762 77.872 127.762 78.632V84.488H131.434V86H123.466Z" fill="black"/>
</svg>
