<svg width="192" height="91" viewBox="0 0 192 91" fill="none" xmlns="http://www.w3.org/2000/svg">
<path d="M67.1574 40L70.8534 28.8H71.7174L75.4454 40H74.3094L71.6054 31.632C71.5894 31.5787 71.5574 31.4853 71.5094 31.352C71.4668 31.2133 71.4214 31.0747 71.3734 30.936C71.3308 30.7973 71.3014 30.6933 71.2854 30.624C71.2694 30.6933 71.2401 30.7973 71.1974 30.936C71.1548 31.0747 71.1121 31.2107 71.0694 31.344C71.0321 31.4773 71.0028 31.5733 70.9814 31.632L68.3254 40H67.1574ZM68.8534 37.104L69.1894 36.112H73.3974L73.7334 37.104H68.8534ZM79.0008 40.192C78.2808 40.192 77.6595 40.016 77.1368 39.664C76.6141 39.312 76.2115 38.816 75.9288 38.176C75.6515 37.5307 75.5128 36.7733 75.5128 35.904C75.5128 35.008 75.6541 34.2427 75.9368 33.608C76.2195 32.968 76.6221 32.48 77.1448 32.144C77.6675 31.8027 78.2861 31.632 79.0008 31.632C79.5608 31.632 80.0195 31.7093 80.3768 31.864C80.7395 32.0187 81.0435 32.1973 81.2888 32.4V29.008L82.4088 28.448V40H81.2888V39.296C81.0435 39.5413 80.7421 39.752 80.3848 39.928C80.0328 40.104 79.5715 40.192 79.0008 40.192ZM79.1288 39.184C79.5928 39.184 80.0115 39.072 80.3848 38.848C80.7635 38.624 81.0648 38.3093 81.2888 37.904V33.824C81.1235 33.552 80.8648 33.288 80.5128 33.032C80.1661 32.7707 79.7048 32.64 79.1288 32.64C78.3395 32.64 77.7341 32.9227 77.3128 33.488C76.8915 34.048 76.6808 34.8533 76.6808 35.904C76.6808 36.512 76.7795 37.064 76.9768 37.56C77.1795 38.056 77.4621 38.4507 77.8248 38.744C78.1928 39.0373 78.6275 39.184 79.1288 39.184ZM86.6682 40.192C86.0975 40.192 85.5962 40.0907 85.1642 39.888C84.7322 39.68 84.3935 39.3707 84.1482 38.96C83.9082 38.5493 83.7882 38.0373 83.7882 37.424C83.7882 36.7947 83.9322 36.2827 84.2202 35.888C84.5135 35.488 84.8922 35.1947 85.3562 35.008C85.8255 34.816 86.3269 34.72 86.8602 34.72C87.2549 34.72 87.6362 34.7627 88.0042 34.848C88.3775 34.928 88.7642 35.0773 89.1642 35.296V34.608C89.1642 34.0587 89.0789 33.64 88.9082 33.352C88.7375 33.064 88.5135 32.8693 88.2362 32.768C87.9642 32.6613 87.6762 32.608 87.3722 32.608C86.9402 32.608 86.4815 32.704 85.9962 32.896C85.5162 33.0827 85.1109 33.28 84.7802 33.488L84.4602 32.528C84.8069 32.32 85.2495 32.12 85.7882 31.928C86.3269 31.7307 86.8922 31.632 87.4842 31.632C87.7775 31.632 88.0815 31.672 88.3962 31.752C88.7109 31.832 89.0042 31.976 89.2762 32.184C89.5535 32.3867 89.7775 32.672 89.9482 33.04C90.1189 33.408 90.2042 33.8827 90.2042 34.464V40H89.1642V39.2C88.8389 39.4933 88.4629 39.7333 88.0362 39.92C87.6149 40.1013 87.1589 40.192 86.6682 40.192ZM86.7802 39.216C87.3242 39.216 87.7962 39.0827 88.1962 38.816C88.5962 38.544 88.9189 38.256 89.1642 37.952V36.368C88.9029 36.192 88.5722 36.0373 88.1722 35.904C87.7722 35.7653 87.3722 35.696 86.9722 35.696C86.3962 35.696 85.8949 35.8373 85.4682 36.12C85.0415 36.3973 84.8282 36.832 84.8282 37.424C84.8282 37.9573 84.9962 38.3893 85.3322 38.72C85.6735 39.0507 86.1562 39.216 86.7802 39.216ZM91.0396 40V31.824H92.1916V33.168L92.0316 33.056C92.2022 32.5973 92.4182 32.2453 92.6796 32C92.9409 31.7547 93.2796 31.632 93.6956 31.632C94.1756 31.632 94.5489 31.768 94.8156 32.04C95.0822 32.3067 95.2636 32.5973 95.3596 32.912C95.5462 32.56 95.7916 32.2587 96.0956 32.008C96.3996 31.7573 96.7676 31.632 97.1996 31.632C97.8876 31.632 98.3916 31.8507 98.7116 32.288C99.0369 32.7253 99.1996 33.408 99.1996 34.336V40H98.0476V34.992C98.0476 34.2133 97.9836 33.632 97.8556 33.248C97.7276 32.864 97.4396 32.672 96.9916 32.672C96.6716 32.672 96.4156 32.784 96.2236 33.008C96.0369 33.232 95.9009 33.528 95.8156 33.896C95.7356 34.264 95.6956 34.6667 95.6956 35.104V40H94.5436V34.784C94.5436 34.4267 94.5222 34.088 94.4796 33.768C94.4422 33.4427 94.3516 33.1787 94.2076 32.976C94.0689 32.7733 93.8502 32.672 93.5516 32.672C93.2422 32.672 92.9862 32.784 92.7836 33.008C92.5862 33.232 92.4369 33.528 92.3356 33.896C92.2396 34.264 92.1916 34.6667 92.1916 35.104V40H91.0396ZM111.286 40.192C110.598 40.192 110.009 40.032 109.518 39.712C109.033 39.3867 108.638 38.9493 108.334 38.4C108.03 37.8453 107.806 37.224 107.662 36.536C107.518 35.8427 107.446 35.1307 107.446 34.4C107.446 33.6373 107.521 32.9093 107.67 32.216C107.82 31.5173 108.049 30.8987 108.358 30.36C108.673 29.816 109.073 29.3893 109.558 29.08C110.044 28.7653 110.62 28.608 111.286 28.608C111.862 28.608 112.337 28.696 112.71 28.872C113.089 29.0427 113.396 29.2667 113.63 29.544C113.87 29.8213 114.07 30.112 114.23 30.416L113.238 30.992C113.041 30.6293 112.796 30.3093 112.502 30.032C112.214 29.7547 111.809 29.616 111.286 29.616C110.796 29.616 110.38 29.76 110.038 30.048C109.697 30.3307 109.422 30.7067 109.214 31.176C109.006 31.6453 108.854 32.1627 108.758 32.728C108.662 33.288 108.614 33.8453 108.614 34.4C108.614 35.0133 108.665 35.608 108.766 36.184C108.868 36.7547 109.025 37.2667 109.238 37.72C109.457 38.168 109.734 38.5253 110.07 38.792C110.412 39.0533 110.817 39.184 111.286 39.184C111.958 39.184 112.489 38.9333 112.878 38.432C113.268 37.9253 113.462 37.248 113.462 36.4V35.728H111.398V34.736H114.646V35.968C114.646 36.8853 114.497 37.6587 114.198 38.288C113.9 38.912 113.497 39.3867 112.99 39.712C112.484 40.032 111.916 40.192 111.286 40.192ZM118.426 40.192C117.855 40.192 117.354 40.0907 116.922 39.888C116.49 39.68 116.151 39.3707 115.906 38.96C115.666 38.5493 115.546 38.0373 115.546 37.424C115.546 36.7947 115.69 36.2827 115.978 35.888C116.271 35.488 116.65 35.1947 117.114 35.008C117.583 34.816 118.084 34.72 118.618 34.72C119.012 34.72 119.394 34.7627 119.762 34.848C120.135 34.928 120.522 35.0773 120.922 35.296V34.608C120.922 34.0587 120.836 33.64 120.666 33.352C120.495 33.064 120.271 32.8693 119.994 32.768C119.722 32.6613 119.434 32.608 119.13 32.608C118.698 32.608 118.239 32.704 117.754 32.896C117.274 33.0827 116.868 33.28 116.538 33.488L116.218 32.528C116.564 32.32 117.007 32.12 117.546 31.928C118.084 31.7307 118.65 31.632 119.242 31.632C119.535 31.632 119.839 31.672 120.154 31.752C120.468 31.832 120.762 31.976 121.034 32.184C121.311 32.3867 121.535 32.672 121.706 33.04C121.876 33.408 121.962 33.8827 121.962 34.464V40H120.922V39.2C120.596 39.4933 120.22 39.7333 119.794 39.92C119.372 40.1013 118.916 40.192 118.426 40.192ZM118.538 39.216C119.082 39.216 119.554 39.0827 119.954 38.816C120.354 38.544 120.676 38.256 120.922 37.952V36.368C120.66 36.192 120.33 36.0373 119.93 35.904C119.53 35.7653 119.13 35.696 118.73 35.696C118.154 35.696 117.652 35.8373 117.226 36.12C116.799 36.3973 116.586 36.832 116.586 37.424C116.586 37.9573 116.754 38.3893 117.09 38.72C117.431 39.0507 117.914 39.216 118.538 39.216ZM123.709 43.248V31.824H124.829V32.56C125.096 32.32 125.4 32.1067 125.741 31.92C126.082 31.728 126.541 31.632 127.117 31.632C127.858 31.632 128.493 31.8107 129.021 32.168C129.554 32.52 129.962 33.016 130.245 33.656C130.528 34.296 130.669 35.0453 130.669 35.904C130.669 36.816 130.52 37.592 130.221 38.232C129.922 38.8667 129.509 39.352 128.981 39.688C128.458 40.024 127.858 40.192 127.181 40.192C126.552 40.192 126.061 40.0907 125.709 39.888C125.357 39.68 125.064 39.44 124.829 39.168V42.688L123.709 43.248ZM127.053 39.184C127.832 39.184 128.434 38.9013 128.861 38.336C129.288 37.7707 129.501 36.96 129.501 35.904C129.501 34.912 129.28 34.12 128.837 33.528C128.4 32.936 127.784 32.64 126.989 32.64C126.525 32.64 126.104 32.752 125.725 32.976C125.352 33.1947 125.053 33.504 124.829 33.904V37.92C125.112 38.2773 125.429 38.5787 125.781 38.824C126.133 39.064 126.557 39.184 127.053 39.184ZM131.648 43.248V31.824H132.768V32.56C133.035 32.32 133.339 32.1067 133.68 31.92C134.022 31.728 134.48 31.632 135.056 31.632C135.798 31.632 136.432 31.8107 136.96 32.168C137.494 32.52 137.902 33.016 138.184 33.656C138.467 34.296 138.608 35.0453 138.608 35.904C138.608 36.816 138.459 37.592 138.16 38.232C137.862 38.8667 137.448 39.352 136.92 39.688C136.398 40.024 135.798 40.192 135.12 40.192C134.491 40.192 134 40.0907 133.648 39.888C133.296 39.68 133.003 39.44 132.768 39.168V42.688L131.648 43.248ZM134.992 39.184C135.771 39.184 136.374 38.9013 136.8 38.336C137.227 37.7707 137.44 36.96 137.44 35.904C137.44 34.912 137.219 34.12 136.776 33.528C136.339 32.936 135.723 32.64 134.928 32.64C134.464 32.64 134.043 32.752 133.664 32.976C133.291 33.1947 132.992 33.504 132.768 33.904V37.92C133.051 38.2773 133.368 38.5787 133.72 38.824C134.072 39.064 134.496 39.184 134.992 39.184ZM142.916 40.192C142.142 40.192 141.481 39.9947 140.932 39.6C140.388 39.2053 139.972 38.6827 139.684 38.032C139.396 37.3813 139.252 36.672 139.252 35.904C139.252 34.9973 139.404 34.2267 139.708 33.592C140.012 32.952 140.438 32.4667 140.988 32.136C141.537 31.8 142.18 31.632 142.916 31.632C143.518 31.632 144.073 31.7707 144.58 32.048C145.086 32.3253 145.492 32.7547 145.796 33.336C146.105 33.9173 146.26 34.6667 146.26 35.584C146.26 35.6693 146.257 35.7787 146.252 35.912C146.252 36.04 146.244 36.192 146.228 36.368H140.148V35.36H145.124C145.124 34.6293 145.004 34.0693 144.764 33.68C144.524 33.2853 144.23 33.0133 143.884 32.864C143.542 32.7147 143.22 32.64 142.916 32.64C142.062 32.64 141.43 32.912 141.02 33.456C140.609 34 140.404 34.7253 140.404 35.632C140.404 36.7253 140.63 37.5867 141.084 38.216C141.537 38.84 142.164 39.152 142.964 39.152C143.278 39.152 143.601 39.104 143.932 39.008C144.262 38.9067 144.59 38.7413 144.916 38.512L145.524 39.264C145.188 39.5253 144.793 39.7467 144.34 39.928C143.886 40.104 143.412 40.192 142.916 40.192ZM146.583 40V38.992H148.279V32.832H146.583V31.824H149.383V33.664L149.287 33.44C149.479 33.0613 149.762 32.7387 150.135 32.472C150.509 32.2 150.917 31.992 151.359 31.848C151.807 31.704 152.237 31.632 152.647 31.632C153.063 31.632 153.415 31.6667 153.703 31.736C153.991 31.8053 154.215 31.8933 154.375 32V34.736H153.239V32.336L153.511 32.896C153.383 32.8533 153.242 32.824 153.087 32.808C152.933 32.792 152.759 32.784 152.567 32.784C152.071 32.784 151.583 32.872 151.103 33.048C150.623 33.2187 150.226 33.4747 149.911 33.816C149.602 34.1573 149.447 34.5813 149.447 35.088V38.992H151.895V40H146.583ZM87.9019 60V48.8H90.4459C91.2512 48.8 91.9285 48.96 92.4779 49.28C93.0272 49.6 93.4672 50.0293 93.7979 50.568C94.1339 51.1013 94.3765 51.7013 94.5259 52.368C94.6752 53.0293 94.7499 53.7067 94.7499 54.4C94.7499 55.0453 94.6805 55.696 94.5419 56.352C94.4085 57.008 94.1765 57.6133 93.8459 58.168C93.5205 58.7173 93.0752 59.16 92.5099 59.496C91.9499 59.832 91.2405 60 90.3819 60H87.9019ZM89.0219 58.992H90.3659C90.9952 58.992 91.5179 58.8587 91.9339 58.592C92.3499 58.32 92.6779 57.96 92.9179 57.512C93.1579 57.064 93.3285 56.5707 93.4299 56.032C93.5312 55.488 93.5819 54.944 93.5819 54.4C93.5819 53.8187 93.5259 53.256 93.4139 52.712C93.3072 52.1627 93.1312 51.6693 92.8859 51.232C92.6459 50.7947 92.3339 50.448 91.9499 50.192C91.5659 49.936 91.0965 49.808 90.5419 49.808H89.0219V58.992ZM99.2492 60.192C98.4759 60.192 97.8146 59.9947 97.2652 59.6C96.7212 59.2053 96.3052 58.6827 96.0172 58.032C95.7292 57.3813 95.5852 56.672 95.5852 55.904C95.5852 54.9973 95.7372 54.2267 96.0412 53.592C96.3452 52.952 96.7719 52.4667 97.3212 52.136C97.8706 51.8 98.5132 51.632 99.2492 51.632C99.8519 51.632 100.407 51.7707 100.913 52.048C101.42 52.3253 101.825 52.7547 102.129 53.336C102.439 53.9173 102.593 54.6667 102.593 55.584C102.593 55.6693 102.591 55.7787 102.585 55.912C102.585 56.04 102.577 56.192 102.561 56.368H96.4812V55.36H101.457C101.457 54.6293 101.337 54.0693 101.097 53.68C100.857 53.2853 100.564 53.0133 100.217 52.864C99.8759 52.7147 99.5532 52.64 99.2492 52.64C98.3959 52.64 97.7639 52.912 97.3532 53.456C96.9426 54 96.7372 54.7253 96.7372 55.632C96.7372 56.7253 96.9639 57.5867 97.4172 58.216C97.8706 58.84 98.4972 59.152 99.2972 59.152C99.6119 59.152 99.9346 59.104 100.265 59.008C100.596 58.9067 100.924 58.7413 101.249 58.512L101.857 59.264C101.521 59.5253 101.127 59.7467 100.673 59.928C100.22 60.104 99.7452 60.192 99.2492 60.192ZM106.949 60.192C106.383 60.192 105.845 60.056 105.333 59.784C104.821 59.512 104.389 59.1733 104.037 58.768L104.821 58.08C105.077 58.3733 105.402 58.6347 105.797 58.864C106.191 59.088 106.607 59.2 107.045 59.2C107.519 59.2 107.919 59.0987 108.245 58.896C108.575 58.6933 108.741 58.4 108.741 58.016C108.741 57.6853 108.634 57.4107 108.421 57.192C108.213 56.968 107.946 56.7787 107.621 56.624C107.295 56.4693 106.959 56.3253 106.613 56.192C106.165 56.016 105.746 55.8267 105.357 55.624C104.973 55.416 104.661 55.16 104.421 54.856C104.186 54.552 104.069 54.1707 104.069 53.712C104.069 53.296 104.186 52.9333 104.421 52.624C104.655 52.3093 104.978 52.0667 105.389 51.896C105.805 51.72 106.277 51.632 106.805 51.632C107.375 51.632 107.893 51.7413 108.357 51.96C108.821 52.1787 109.221 52.4853 109.557 52.88L108.821 53.504C108.607 53.296 108.33 53.0987 107.989 52.912C107.653 52.72 107.247 52.624 106.773 52.624C106.271 52.624 105.871 52.72 105.573 52.912C105.274 53.104 105.125 53.3653 105.125 53.696C105.125 53.968 105.218 54.1973 105.405 54.384C105.597 54.5653 105.842 54.7253 106.141 54.864C106.439 55.0027 106.757 55.136 107.093 55.264C107.514 55.424 107.933 55.608 108.349 55.816C108.765 56.0187 109.109 56.288 109.381 56.624C109.658 56.96 109.797 57.4027 109.797 57.952C109.797 58.6293 109.541 59.1733 109.029 59.584C108.522 59.9893 107.829 60.192 106.949 60.192ZM114.664 59.68V51.824H115.784V59.68H114.664ZM112.408 60V58.992H118.04V60H112.408ZM112.408 52.832V51.824H115.224V52.832H112.408ZM115.224 50.144C115.016 50.144 114.84 50.0747 114.696 49.936C114.557 49.792 114.488 49.616 114.488 49.408C114.488 49.1893 114.557 49.008 114.696 48.864C114.84 48.7147 115.016 48.64 115.224 48.64C115.443 48.64 115.619 48.7147 115.752 48.864C115.891 49.008 115.96 49.1893 115.96 49.408C115.96 49.616 115.891 49.792 115.752 49.936C115.619 50.0747 115.443 50.144 115.224 50.144ZM122.251 63.408L121.739 62.528C122.625 62.48 123.299 62.352 123.763 62.144C124.227 61.936 124.545 61.672 124.715 61.352C124.886 61.0373 124.971 60.6933 124.971 60.32V59.072C124.742 59.4133 124.446 59.6853 124.083 59.888C123.726 60.0907 123.238 60.192 122.619 60.192C122.011 60.192 121.443 60.032 120.915 59.712C120.393 59.392 119.969 58.9147 119.643 58.28C119.323 57.6453 119.163 56.8533 119.163 55.904C119.163 55.008 119.313 54.2427 119.611 53.608C119.915 52.968 120.331 52.48 120.859 52.144C121.387 51.8027 121.995 51.632 122.683 51.632C123.137 51.632 123.515 51.6907 123.819 51.808C124.129 51.92 124.374 52.0533 124.555 52.208C124.742 52.3573 124.881 52.4853 124.971 52.592V51.824H126.091V59.872C126.091 60.544 125.985 61.104 125.771 61.552C125.563 62 125.278 62.3547 124.915 62.616C124.558 62.8827 124.15 63.0747 123.691 63.192C123.233 63.3147 122.753 63.3867 122.251 63.408ZM122.875 59.184C123.27 59.184 123.662 59.064 124.051 58.824C124.441 58.5787 124.747 58.2453 124.971 57.824V53.888C124.742 53.4773 124.422 53.168 124.011 52.96C123.606 52.7467 123.227 52.64 122.875 52.64C122.027 52.64 121.39 52.9227 120.963 53.488C120.542 54.048 120.331 54.8533 120.331 55.904C120.331 56.9493 120.574 57.7573 121.059 58.328C121.545 58.8987 122.15 59.184 122.875 59.184ZM127.679 60V51.824H128.799V53.216L128.607 53.024C128.777 52.7093 128.98 52.4507 129.215 52.248C129.449 52.04 129.716 51.8853 130.015 51.784C130.313 51.6827 130.644 51.632 131.007 51.632C131.695 51.632 132.263 51.7653 132.711 52.032C133.159 52.2933 133.489 52.7067 133.703 53.272C133.921 53.8373 134.031 54.5707 134.031 55.472V60H132.911V55.008C132.911 54.144 132.719 53.5333 132.335 53.176C131.956 52.8187 131.481 52.64 130.911 52.64C130.495 52.64 130.127 52.712 129.807 52.856C129.492 53 129.244 53.2427 129.063 53.584C128.887 53.92 128.799 54.384 128.799 54.976V60H127.679Z" fill="black"/>
<path fill-rule="evenodd" clip-rule="evenodd" d="M30.0724 90.2666L0.816528 45.4908L30.1573 0.584961L59.4132 45.3608L30.0724 90.2666ZM10.1745 33.9922L2.76961 45.3258L11.2684 58.3337L18.6732 47.0002L10.1745 33.9922ZM19.8678 45.1719L11.369 32.164L20.3067 18.4842L28.8055 31.4921L19.8678 45.1719ZM19.8678 48.8284L12.4629 60.162L21.4006 73.8418L28.8055 62.5082L19.8678 48.8284ZM22.5951 75.6701L30 87.0036L37.4048 75.6701L30 64.3365L22.5951 75.6701ZM38.5994 73.8418L47.5371 60.162L40.1323 48.8284L31.1945 62.5082L38.5994 73.8418ZM38.9377 47.0001L30 60.6799L21.0623 47.0002L30 33.3204L38.9377 47.0001ZM41.3268 47.0001L48.7316 58.3337L57.2304 45.3258L49.8256 33.9922L41.3268 47.0001ZM48.631 32.1639L40.1323 45.1718L31.1945 31.4921L39.6933 18.4842L48.631 32.1639ZM21.5012 16.6559L30 3.64799L38.4988 16.6559L30 29.6638L21.5012 16.6559Z" fill="black"/>
</svg>
